<?xml version="1.0" standalone="no"?>
<!DOCTYPE svg PUBLIC "-//W3C//DTD SVG 20010904//EN"
 "http://www.w3.org/TR/2001/REC-SVG-20010904/DTD/svg10.dtd">
<svg version="1.0" xmlns="http://www.w3.org/2000/svg"
 width="800.000000pt" height="800.000000pt" viewBox="0 0 800.000000 800.000000"
 preserveAspectRatio="xMidYMid meet">
<metadata>
Created by potrace 1.14, written by Peter Selinger 2001-2017
</metadata>
<g transform="translate(0.000000,800.000000) scale(0.100000,-0.100000)"
fill="#000000" stroke="none">
<path d="M5010 7869 c-52 -19 -59 -19 -144 -4 -124 21 -182 19 -273 -9 -108
-34 -121 -36 -289 -47 -82 -5 -212 -14 -289 -21 -283 -23 -534 -7 -807 54 -84
18 -108 20 -170 11 -99 -14 -215 -61 -345 -139 -183 -110 -255 -198 -299 -367
-19 -73 -15 -213 11 -427 15 -125 15 -213 0 -386 -2 -16 3 -46 10 -66 6 -19
11 -72 10 -116 -1 -75 -3 -83 -29 -107 -28 -26 -37 -25 -49 9 -5 15 -156 19
-266 7 -107 -12 -250 -40 -360 -71 l-64 -18 -62 62 c-93 93 -211 145 -331 146
-64 0 -99 -22 -174 -112 -72 -85 -102 -147 -135 -282 -55 -222 -14 -381 171
-663 53 -80 117 -136 172 -150 29 -7 31 -5 34 35 1 18 5 32 9 32 8 0 84 99 90
118 5 14 155 -85 265 -175 136 -111 310 -250 509 -408 110 -87 238 -191 285
-230 107 -90 291 -229 348 -262 65 -38 165 -69 286 -89 91 -14 120 -15 182 -6
l74 12 109 -55 c233 -117 385 -146 876 -171 66 -3 203 -1 305 5 102 6 232 14
290 16 137 7 179 12 275 36 145 35 322 98 462 165 76 36 170 81 208 99 39 19
109 58 156 87 111 70 408 283 479 343 102 87 282 270 333 340 28 39 73 94 99
124 26 30 50 68 54 85 3 17 23 65 45 106 58 114 127 294 155 405 35 136 44
360 19 454 -84 321 -334 493 -738 508 -240 9 -534 -29 -637 -82 -16 -8 -34
-15 -40 -15 -16 0 -12 81 11 240 14 92 22 200 23 295 1 150 1 150 -31 216 -18
36 -74 121 -125 189 -51 68 -99 132 -107 142 -17 23 -135 110 -180 133 -27 13
-67 18 -195 20 -140 3 -168 1 -216 -16z"/>
<path d="M6610 3936 c0 -9 -4 -16 -9 -16 -5 0 -12 -8 -16 -19 -7 -23 70 -208
118 -284 37 -58 161 -332 193 -427 11 -32 17 -80 17 -116 -2 -71 -34 -172 -63
-196 -26 -22 -122 -41 -160 -33 -50 11 -122 100 -159 198 -17 47 -41 97 -52
112 -16 19 -24 54 -35 148 -28 244 -58 421 -75 443 -5 6 -7 13 -5 15 2 2 -2 9
-9 16 -22 20 -39 -12 -43 -81 -2 -33 6 -158 18 -276 24 -237 30 -620 10 -720
-6 -30 -24 -139 -40 -241 -79 -505 -221 -874 -404 -1054 -150 -146 -311 -262
-448 -324 -168 -75 -577 -151 -814 -151 -180 0 -499 47 -656 97 -77 25 -410
192 -503 253 -105 69 -311 255 -387 350 -68 83 -175 244 -211 317 -41 82 -87
229 -97 310 -30 248 -39 677 -15 763 74 273 80 310 43 310 -34 0 -84 -53 -106
-112 -11 -29 -21 -57 -23 -63 -2 -5 -29 -50 -59 -99 -43 -70 -96 -131 -250
-286 -110 -110 -216 -208 -243 -224 -64 -36 -171 -76 -206 -76 -16 0 -42 -7
-57 -15 -52 -27 -72 -20 -146 55 l-71 71 5 67 c9 114 52 201 206 422 185 267
214 310 256 390 83 157 123 313 96 375 -5 11 -9 14 -9 7 -1 -13 -11 -28 -47
-65 -12 -12 -27 -31 -33 -42 -10 -17 -11 -15 -5 15 15 75 -15 163 -41 120 -8
-12 15 -141 27 -157 7 -9 7 -13 -1 -13 -6 0 -11 -7 -11 -16 0 -33 -121 -230
-243 -394 -104 -140 -226 -327 -259 -396 -34 -72 -62 -205 -53 -253 24 -132
189 -292 338 -330 42 -10 55 -8 144 20 171 55 259 107 385 227 43 41 80 73 81
71 2 -2 14 -29 26 -59 13 -30 48 -109 78 -174 30 -65 57 -131 59 -145 10 -62
17 -86 41 -140 14 -31 36 -90 50 -131 50 -151 117 -273 223 -404 267 -333 603
-570 997 -705 123 -42 438 -110 517 -112 28 0 26 -3 -29 -29 -329 -157 -352
-170 -407 -219 -86 -78 -102 -109 -101 -200 1 -152 76 -231 220 -231 74 0 224
51 301 103 165 110 326 278 404 419 24 43 46 78 49 78 3 0 9 -46 13 -103 3
-56 13 -130 21 -165 31 -129 106 -269 196 -365 l45 -47 78 0 c74 0 81 2 126
35 64 47 76 67 106 184 25 97 25 102 10 160 -19 75 -41 118 -99 197 -71 97
-265 240 -307 227 -8 -2 -21 -7 -29 -9 -8 -2 34 -37 95 -80 187 -130 224 -177
264 -335 34 -129 16 -228 -43 -249 -107 -37 -230 42 -324 208 -47 83 -68 156
-83 277 -6 55 -15 117 -20 137 l-7 36 51 7 c137 18 391 92 546 160 183 79 346
213 502 409 178 224 258 426 348 875 32 163 70 332 83 376 14 45 31 113 38
153 7 40 16 72 19 72 3 0 22 -16 41 -36 56 -59 93 -76 180 -85 73 -7 84 -6
137 18 73 32 90 47 118 108 55 116 22 270 -126 585 -38 80 -94 208 -126 284
-39 93 -71 155 -98 185 -44 52 -56 60 -56 37z m-116 -1017 l22 -32 -23 -101
c-13 -55 -26 -102 -29 -105 -2 -2 -4 60 -4 139 0 79 3 141 6 137 4 -3 16 -21
28 -38z m-3873 -236 c0 -65 2 -127 4 -138 1 -11 6 -58 9 -105 l6 -85 -20 35
c-10 19 -40 85 -66 145 -26 61 -50 111 -55 113 -9 4 101 150 114 151 4 1 7
-52 8 -116z m2274 -1930 c-9 -39 -89 -178 -137 -240 -115 -149 -351 -335 -476
-373 -85 -27 -126 -25 -179 5 -80 47 -89 103 -35 213 53 109 187 216 421 334
92 47 123 58 165 59 28 0 89 6 136 13 47 8 91 14 99 15 10 1 11 -6 6 -26z"/>
<path d="M2160 3900 c-7 -5 3 -9 26 -12 40 -5 52 -3 41 8 -10 10 -53 13 -67 4z"/>
<path d="M5412 3483 c-42 -44 -54 -76 -78 -213 -14 -82 -15 -112 -5 -217 19
-194 46 -255 139 -314 61 -38 151 -41 203 -6 39 26 83 88 98 138 14 46 14 199
1 270 -30 158 -102 312 -165 353 -14 9 -55 20 -90 23 l-65 6 -38 -40z"/>
<path d="M3980 3458 c-90 -61 -136 -308 -100 -543 27 -181 113 -275 252 -275
75 0 113 20 156 79 46 63 55 114 49 254 -9 186 -63 354 -145 443 -29 33 -48
44 -90 53 -73 15 -84 14 -122 -11z"/>
<path d="M4775 2340 c-22 -5 -67 -9 -101 -9 -46 -1 -65 -6 -77 -19 -43 -47
-25 -134 36 -173 19 -13 44 -37 56 -55 12 -18 40 -44 61 -59 l38 -26 1 -114 0
-113 -30 -12 c-23 -10 -46 -10 -107 0 -89 14 -236 64 -271 91 -35 28 -61 25
-61 -7 0 -19 20 -47 71 -99 121 -125 214 -151 509 -142 183 5 247 18 324 66
45 29 144 143 148 172 3 21 -1 24 -26 22 -16 -1 -36 -8 -45 -16 -40 -35 -252
-97 -330 -97 -15 0 -37 9 -49 20 -19 18 -21 30 -21 124 1 102 1 105 27 122 50
33 182 170 193 201 8 24 7 39 -5 67 -16 39 -24 42 -126 50 -36 3 -90 7 -120
10 -30 3 -73 1 -95 -4z"/>
</g>
</svg>
